<svg width="142" height="35" viewBox="0 0 142 35" fill="none" xmlns="http://www.w3.org/2000/svg">
<g clip-path="url(#clip0_1701_18401)">
<path d="M35.5838 15.4486C35.1154 16.0708 34.6026 16.5326 34.0701 16.8097C33.7545 16.9799 33.4488 17.0674 33.1481 17.0674C32.8473 17.0674 32.586 17.0042 32.3345 16.8778C32.1127 16.766 31.9154 16.625 31.7379 16.4451C31.378 16.0611 31.2005 15.6868 31.2005 15.3125C31.2005 14.7972 31.4224 14.5201 31.6196 14.3743C32.6156 13.65 33.2911 12.9111 33.6362 12.1722C33.7496 11.9389 33.8038 11.7104 33.8038 11.4965C33.8038 11.1514 33.7397 11.1514 33.5228 11.1514C32.7536 11.1514 31.9154 11.6181 31.0279 12.5368C30.1355 13.4507 29.3762 14.6174 28.7648 16.0125C28.1337 17.4368 27.7935 18.7542 27.754 19.9257L27.7442 20.2903C27.7442 21.8361 27.8477 22.5507 28.4887 22.9833C28.4986 22.9882 28.5429 23.0174 28.6711 23.0174C29.4699 23.0174 31.0723 22.05 31.9253 21.35C32.1324 21.1847 32.3543 21.1021 32.5811 21.1021C32.9015 21.1021 33.1875 21.2674 33.3749 21.559C33.5672 21.841 33.6658 22.1618 33.6658 22.5167C33.6658 23.0514 33.577 23.416 33.3847 23.6687C33.2417 23.8583 33.0347 24.0528 32.7339 24.2812C32.4479 24.4951 32.1028 24.6944 31.7034 24.8743C30.7913 25.2826 29.8742 25.4917 28.9867 25.4917C28.0992 25.4917 27.3744 25.375 26.8074 25.1514C26.2305 24.9181 25.7325 24.5778 25.3282 24.1403C24.5196 23.2458 24.1104 22.0354 24.1104 20.5236L24.1202 20.2319C24.1942 18.1465 24.7267 16.1437 25.6931 14.2868C26.5855 12.5854 27.7343 11.1903 29.1001 10.1306C30.4954 9.05625 31.8908 8.51181 33.2516 8.51181C33.3404 8.51181 33.4193 8.53125 33.5031 8.53611C30.3524 3.42708 24.6133 0 18.0359 0C10.2555 0 3.6387 4.79306 1.11426 11.4965C1.60731 11.2486 2.07572 11.0785 2.5096 11.025H2.55398C2.74134 10.9958 2.92377 10.9861 3.09634 10.9861C4.1071 10.9861 4.89106 11.4042 5.35453 12.1868C5.61092 12.6049 5.77363 13.1007 5.84266 13.6646C5.90676 14.1799 5.92648 14.7243 5.90183 15.2736C5.87717 15.8083 5.82294 16.3674 5.74405 16.941C5.66516 17.5 5.58627 18.0299 5.50738 18.5257C5.2362 20.1639 5.2362 20.509 5.24606 20.5722C5.26085 20.6792 5.28058 20.7424 5.29537 20.7764C5.43342 20.7521 5.92155 20.5674 6.91752 19.1965C7.76558 18.0201 8.55446 16.5472 9.25953 14.8167C9.39759 14.2965 9.56523 13.6403 9.75752 12.8528C9.95474 12.0507 10.0829 11.5403 10.1372 11.3215C10.2111 11.0347 10.3245 10.7965 10.4774 10.6167C10.6154 10.4465 10.7732 10.3056 10.9261 10.2083C11.1874 10.0285 11.4734 9.91667 11.7741 9.87778C11.8333 9.86806 11.8875 9.86806 11.9418 9.86806C12.3115 9.86806 12.5975 10.0431 12.7306 10.3542C12.8243 10.5729 12.8539 10.8354 12.8243 11.1368C12.775 11.5938 12.637 12.0993 12.4151 12.6486C12.1636 14.9139 12.1488 16.9653 12.3658 18.7396C12.5088 19.9014 12.6961 20.2854 12.775 20.3972C13.1202 20.3146 13.771 19.9208 14.6831 18.3896C15.4671 17.0771 16.0341 15.609 16.3743 14.0292C16.6061 12.9597 16.68 12.0458 16.5962 11.3215C16.5124 10.6458 16.33 10.15 16.0538 9.84861L15.7432 9.51319L16.0489 9.17292C16.3497 8.8375 16.6702 8.64792 17.0005 8.60417C17.0695 8.59444 17.1386 8.58958 17.2076 8.58958C17.4393 8.58958 17.6563 8.64305 17.8486 8.74514C18.0655 8.8618 18.2578 9.03194 18.4057 9.24097C18.667 9.59583 18.8347 10.0771 18.9037 10.6653C18.9678 11.2 18.9727 11.8465 18.9086 12.5806C18.8495 13.3 18.7311 14.0632 18.5586 14.8458C18.386 15.6139 18.1641 16.4111 17.8979 17.2181C17.6316 18.0153 17.321 18.8028 16.9759 19.5611C16.6307 20.3146 16.2461 21.034 15.832 21.7097C15.4129 22.3854 14.9642 22.9979 14.5007 23.5278C13.4554 24.7042 12.3954 25.3701 11.3501 25.5014C11.212 25.5208 11.074 25.5257 10.9409 25.5257C9.95967 25.5257 8.72703 25.0347 8.44106 22.7014C8.40655 22.4146 8.38683 22.0986 8.3819 21.7583C7.23308 23.5618 5.99058 24.8792 4.67412 25.6764C4.02328 26.075 3.32808 26.3229 2.61808 26.4104C2.59835 26.4104 2.57863 26.4104 2.56384 26.4104C5.7046 31.5486 11.4684 35.0097 18.0754 35.0097C28.0351 35.0097 36.1113 27.1736 36.1113 17.5097C36.1113 16.659 36.0275 15.8326 35.9092 15.0111C35.8155 15.1618 35.7317 15.3076 35.6232 15.4583L35.5838 15.4486ZM19.4855 24.3299C19.0122 24.8208 18.4994 25.166 17.9866 25.3458C17.7943 25.4236 17.5922 25.4576 17.3851 25.4576C17.178 25.4576 16.9759 25.4188 16.7934 25.341C16.6258 25.2681 16.4779 25.1708 16.3595 25.0542C16.0933 24.8062 15.9503 24.5049 15.9503 24.1743C15.9503 23.8194 16.0933 23.5229 16.3595 23.3285C16.4384 23.2701 16.5173 23.2118 16.5913 23.1583C19.0319 20.8347 20.6738 13.6062 20.8365 10.5049C20.8365 9.72708 21.1422 9.26042 21.3986 9.00278C21.6648 8.74028 22.005 8.57986 22.3107 8.57986C22.3699 8.57986 22.4241 8.58472 22.4734 8.59444C22.8235 8.6625 23.1489 8.78403 23.4447 8.95417C24.1695 9.37222 24.564 10.0139 24.5837 10.8111C24.6133 11.8708 24.2632 13.6451 23.5434 16.0903C22.4093 19.9597 21.0436 22.7306 19.4806 24.3299H19.4855Z" fill="#4A2E62"/>
<path d="M0.483147 21.3111C0.616272 20.7715 0.77898 20.2125 0.966341 19.6535C1.14877 19.109 1.34599 18.5646 1.54322 18.0347C1.74044 17.5097 1.93273 17.0042 2.12009 16.518C2.9287 14.4132 2.99773 13.6743 2.96815 13.4264C2.94349 13.2417 2.91391 13.1785 2.65752 13.1785C2.60329 13.1785 2.54905 13.1785 2.48495 13.1882C1.91301 13.2611 1.32134 13.6743 0.739536 14.418C0.591619 14.6125 0.478216 14.7826 0.404258 14.9187L0.192244 15.3174L0.162661 15.3076C0.0689801 16.0319 0.00488281 16.7611 0.00488281 17.5097C0.00488281 18.8514 0.177452 20.1542 0.473286 21.4132C0.483147 21.384 0.483147 21.35 0.488077 21.3208L0.483147 21.3111Z" fill="#4A2E62"/>
<path d="M55.5674 23.7077C55.0546 22.5605 54.5419 21.423 54.0192 20.2806C53.4966 19.1431 52.9838 17.9862 52.4858 16.8195C52.3231 16.4549 52.1653 16.0855 52.0076 15.7112C51.8498 15.3369 51.7019 14.9626 51.5539 14.5883C51.4109 14.2091 51.263 13.8348 51.1102 13.4556C51.1102 13.582 51.1102 13.7084 51.1003 13.8348C51.0905 13.9612 51.0905 14.0876 51.0905 14.2139C51.0806 14.6271 51.0658 15.123 51.0461 15.7014C51.0264 16.2799 51.0066 16.8973 50.9869 17.5535C50.9623 18.2098 50.9475 18.8709 50.9327 19.5271C50.9228 20.1834 50.908 20.8056 50.8982 21.3889C50.8883 21.6417 50.8785 21.8945 50.8735 22.1473C50.8686 22.4001 50.8538 22.6334 50.8291 22.8521C51.051 22.8424 51.268 22.8278 51.48 22.8181C51.6969 22.8084 51.9139 22.7938 52.1357 22.7841V23.5376H48.8076V22.9688C49.1675 22.9591 49.4338 22.8813 49.6014 22.7355C49.7691 22.5945 49.8775 22.4001 49.9219 22.1619C49.9663 21.9188 49.9959 21.666 50.0107 21.3889L50.341 13.5577C50.3509 13.3292 50.3607 13.1008 50.3657 12.8723C50.3706 12.6438 50.3805 12.4202 50.3903 12.2014C50.1832 12.2112 49.9712 12.2209 49.7641 12.2258C49.5571 12.2306 49.3451 12.2403 49.138 12.2501V11.5112H51.8005L54.7982 18.3264C54.9511 18.6716 55.099 19.0119 55.242 19.357C55.385 19.7021 55.5378 20.0424 55.6956 20.3876C55.8534 20.7327 56.0062 21.0827 56.1591 21.4376H56.1936C56.3218 21.1264 56.4697 20.7619 56.6472 20.3292C56.8198 19.8966 56.9677 19.532 57.0811 19.2209C57.5939 17.9619 58.1214 16.7028 58.6737 15.4341C59.2259 14.1702 59.7682 12.8626 60.3007 11.5112H62.8794V12.0799C62.5885 12.0702 62.3519 12.1237 62.1645 12.2403C61.9771 12.3619 61.844 12.5563 61.7651 12.8334C61.6862 13.1105 61.6566 13.4799 61.6764 13.9466L62.13 21.7584C62.1546 21.9528 62.1645 22.1424 62.1645 22.3271V22.823C62.3716 22.8133 62.5836 22.8035 62.8005 22.7987C63.0175 22.7987 63.2246 22.7841 63.4366 22.7744V23.5278H59.5365V22.9591C59.8964 22.9494 60.1627 22.8619 60.3402 22.7014C60.5128 22.541 60.6212 22.3126 60.6607 22.016C60.7001 21.7195 60.71 21.3501 60.6853 20.9174L60.3353 15.2494C60.3254 15.0646 60.3106 14.8848 60.3007 14.7001C60.2909 14.5153 60.2761 14.3355 60.2662 14.1508C60.2564 13.966 60.2416 13.7862 60.2317 13.6014C60.1972 13.6792 60.1578 13.7667 60.1183 13.8591C60.0789 13.9514 60.0394 14.0487 60.0049 14.1508L56.0851 23.698H55.5625L55.5674 23.7077Z" fill="#4A2E62"/>
<path d="M76.1721 23.8097C75.0677 23.8097 74.121 23.625 73.3321 23.2604C72.5432 22.8958 71.9023 22.4049 71.4092 21.7924C70.9161 21.1799 70.5513 20.4993 70.3195 19.7556C70.0878 19.0118 69.9695 18.2681 69.9695 17.5243C69.9695 16.7806 70.0927 16.0757 70.3343 15.3368C70.5809 14.5979 70.9507 13.9222 71.4585 13.3C71.9614 12.6826 72.5975 12.1868 73.3568 11.8076C74.1161 11.4285 75.0085 11.2389 76.0291 11.2389C77.0498 11.2389 78.0211 11.4285 78.8001 11.8076C79.5791 12.1868 80.2201 12.6875 80.723 13.3097C81.2259 13.9368 81.6056 14.6125 81.8571 15.3465C82.1085 16.0806 82.2318 16.8049 82.2318 17.5243C82.2318 18.2438 82.1085 18.9583 81.8669 19.6972C81.6204 20.4361 81.2506 21.1167 80.7427 21.7389C80.2398 22.366 79.6087 22.8618 78.8543 23.241C78.1 23.6201 77.2075 23.8097 76.1721 23.8097ZM76.2066 23.1049C76.9265 23.1049 77.5527 22.9542 78.0852 22.6479C78.6177 22.3465 79.0614 21.9382 79.4164 21.4278C79.7714 20.9174 80.0377 20.3535 80.2152 19.7264C80.3927 19.0993 80.4864 18.4771 80.4864 17.8451C80.4864 17.1354 80.3877 16.4306 80.1905 15.7306C79.9933 15.0306 79.7024 14.3986 79.3178 13.825C78.9332 13.2514 78.4599 12.7944 77.8978 12.4444C77.3357 12.0944 76.6948 11.9194 75.9749 11.9194C75.255 11.9194 74.6239 12.075 74.0865 12.3813C73.5491 12.6924 73.1004 13.1007 72.7454 13.6111C72.3904 14.1215 72.1241 14.6854 71.9466 15.3125C71.7642 15.9347 71.6755 16.5667 71.6755 17.2083C71.6755 17.85 71.7642 18.4965 71.9466 19.1819C72.1241 19.8674 72.4002 20.509 72.775 21.1069C73.1448 21.7 73.6181 22.1813 74.1851 22.5507C74.7521 22.9201 75.4276 23.1 76.2066 23.1V23.1049Z" fill="#4A2E62"/>
<path d="M96.0226 15.157C95.9881 14.6077 95.8549 14.0875 95.6232 13.5966C95.3915 13.1056 95.0562 12.7021 94.6124 12.3959C94.1736 12.0896 93.6066 11.9341 92.9213 11.9341C92.2014 11.9341 91.6492 12.1334 91.2646 12.5369C90.88 12.9355 90.6877 13.407 90.6877 13.9466C90.6877 14.4278 90.8258 14.8313 91.1068 15.157C91.3829 15.4827 91.7478 15.7695 92.1965 16.0174C92.6451 16.2653 93.1185 16.4987 93.6165 16.732C94.0553 16.9264 94.499 17.1355 94.9379 17.3591C95.3767 17.5827 95.781 17.8403 96.1409 18.1223C96.5008 18.4042 96.7868 18.7494 97.0038 19.1431C97.2207 19.5369 97.3242 20.0084 97.3242 20.5577C97.3242 21.1848 97.1665 21.7487 96.846 22.2396C96.5255 22.7306 96.067 23.1195 95.4605 23.3966C94.859 23.6785 94.1194 23.8195 93.2467 23.8195C92.724 23.8195 92.1866 23.7466 91.6294 23.5959C91.0723 23.45 90.5792 23.2313 90.1503 22.9445L90.239 23.6834H89.3318L89.2283 20.0278H89.9087C89.9679 21.0341 90.3229 21.7973 90.9688 22.3174C91.6196 22.8375 92.4036 23.1 93.3206 23.1C93.7742 23.1 94.1933 23.0174 94.573 22.8521C94.9526 22.6869 95.2583 22.4438 95.4851 22.123C95.712 21.8021 95.8254 21.4132 95.8254 20.9563C95.8254 20.441 95.6873 20.0132 95.4063 19.6681C95.1301 19.3278 94.7702 19.0264 94.3265 18.7737C93.8876 18.5209 93.4143 18.2827 92.9163 18.0542C92.4775 17.8598 92.0387 17.6556 91.6097 17.4369C91.1808 17.2181 90.7863 16.9702 90.4363 16.6882C90.0813 16.4063 89.7953 16.0709 89.5833 15.682C89.3663 15.2931 89.2628 14.8216 89.2628 14.2723C89.2628 13.9757 89.317 13.6549 89.4206 13.3098C89.5241 12.9646 89.7065 12.6389 89.9679 12.323C90.2292 12.007 90.5891 11.7494 91.0476 11.55C91.5062 11.3507 92.088 11.2487 92.798 11.2487C93.2368 11.2487 93.7348 11.307 94.287 11.4285C94.8392 11.55 95.352 11.7785 95.8303 12.1237L95.7613 11.3848H96.6488V15.1619H96.0226V15.157Z" fill="#4A2E62"/>
<path d="M103.216 23.5375V22.9688C103.566 22.9688 103.833 22.8764 104.02 22.6917C104.207 22.507 104.36 22.2591 104.483 21.9382C104.607 21.6174 104.75 21.2479 104.912 20.8202L108.502 11.1903H108.921L112.806 20.9611C112.9 21.2042 113.003 21.5104 113.122 21.8896C113.24 22.2688 113.284 22.5896 113.26 22.8521C113.457 22.8424 113.654 22.8278 113.852 22.8181C114.049 22.8084 114.246 22.7938 114.443 22.7841V23.5375H110.454V22.9688C110.893 22.9591 111.184 22.8618 111.327 22.6771C111.465 22.4924 111.519 22.2785 111.485 22.0257C111.45 21.7729 111.391 21.5445 111.312 21.3403L110.701 19.7264L106.175 19.8285L105.563 21.666C105.484 21.9431 105.41 22.157 105.346 22.3174C105.282 22.4778 105.208 22.6528 105.129 22.8473C105.361 22.8375 105.593 22.8229 105.815 22.8132C106.042 22.8035 106.263 22.7889 106.485 22.7792V23.5327H103.231L103.216 23.5375ZM106.421 19.0896H110.444L109.207 15.8132C109.079 15.4584 108.951 15.1084 108.817 14.7584C108.684 14.4084 108.551 14.0584 108.428 13.7035H108.393C108.275 14.0243 108.157 14.3452 108.038 14.666C107.915 14.9868 107.792 15.3125 107.664 15.6431L106.426 19.0945L106.421 19.0896Z" fill="#4A2E62"/>
<path d="M124.324 12.0848C123.895 12.0945 123.594 12.1917 123.427 12.3764C123.259 12.5612 123.165 12.8042 123.146 13.1153C123.126 13.4216 123.121 13.7862 123.121 14.1945V21.491C123.121 21.8021 123.121 22.0695 123.111 22.2882C123.101 22.507 123.092 22.6966 123.067 22.8473C123.274 22.8376 123.486 22.823 123.693 22.8133C123.9 22.8035 124.112 22.7889 124.319 22.7792V23.5327H120.399V22.9639C120.838 22.9396 121.144 22.8424 121.307 22.6626C121.469 22.4827 121.558 22.2396 121.578 21.9237C121.598 21.6077 121.602 21.2528 121.602 20.8494V13.4313C121.602 13.2028 121.607 12.9841 121.622 12.7702C121.632 12.5612 121.647 12.3667 121.657 12.1966C121.45 12.2063 121.238 12.2209 121.031 12.2306C120.823 12.2403 120.611 12.2549 120.404 12.2646V11.5112H124.324V12.0799V12.0848Z" fill="#4A2E62"/>
<path d="M140.94 15.3466C140.822 14.2722 140.442 13.4361 139.801 12.8382C139.155 12.2452 138.332 11.9438 137.321 11.9438C136.705 11.9438 136.128 12.0702 135.585 12.3278C135.048 12.5854 134.575 12.9549 134.165 13.4361C133.761 13.9174 133.441 14.4959 133.209 15.1716C132.977 15.8472 132.859 16.6104 132.859 17.4563C132.859 18.5306 133.066 19.4834 133.485 20.3049C133.904 21.1264 134.466 21.7681 135.176 22.2299C135.886 22.6868 136.665 22.9153 137.528 22.9153C138.282 22.9153 139.027 22.7452 139.757 22.4097C140.486 22.0743 141.088 21.5834 141.551 20.9417L142.005 21.3014C141.507 21.9771 140.965 22.4972 140.383 22.8618C139.801 23.2264 139.224 23.4792 138.652 23.6104C138.08 23.7417 137.553 23.8097 137.074 23.8097C136.202 23.8097 135.408 23.6542 134.678 23.3479C133.953 23.0368 133.327 22.6091 132.8 22.05C132.272 21.4959 131.863 20.8493 131.582 20.1104C131.301 19.3716 131.158 18.5743 131.158 17.7139C131.158 16.9021 131.281 16.1097 131.532 15.3466C131.784 14.5785 132.159 13.8882 132.657 13.2709C133.155 12.6535 133.786 12.1625 134.545 11.7931C135.304 11.4285 136.192 11.2438 137.203 11.2438C137.853 11.2438 138.47 11.3313 139.047 11.5014C139.628 11.6716 140.186 11.9341 140.718 12.2889L140.629 11.3604H141.571V15.3466H140.945H140.94Z" fill="#4A2E62"/>
</g>
<defs>
<clipPath id="clip0_1701_18401">
<rect width="142" height="35" fill="white"/>
</clipPath>
</defs>
</svg>
